<?xml version="1.0" encoding="UTF-8" standalone="no"?>
<svg
        width="394.87881"
        height="262.28812"
        version="1.1"
        xmlns="http://www.w3.org/2000/svg">
    <g fill="white"
       id="Layer_1"
       transform="translate(-72.118101,-16.269549)">
        <g
                aria-label="URly"
                transform="matrix(1.0185147,0,0,0.98182186,-19.747339,-3.5804202e-7)"
                id="svg_3">
            <g
                    id="g5838"
                    transform="translate(1.1611537,-3.653542)">
                <g
                        id="g5944"
                        transform="translate(-5.984645)">
                    <g
                            id="g100"
                            transform="translate(55.84505)">
                        <path
                                d="m 168.45872,149.02066 q 0,27.65693 -17.67763,43.3387 -16.39458,14.54128 -42.05565,14.54128 -25.946201,0 -42.055653,-14.25616 -17.535068,-15.5392 -17.535068,-43.62382 L 48.992158,30.694588 H 68.380525 V 150.16115 q 0,19.95861 11.832607,30.50817 10.264428,8.98137 28.512308,9.12393 28.36974,0 37.49368,-21.38423 3.13635,-7.55576 3.27891,-18.24787 V 30.694588 h 18.96069 z"
                                style="font-family:Meera;-inkscape-font-specification:'Meera, Normal'"
                                id="path5802"/>
                        <path
                                d="m 290.49139,79.735752 q 0,35.355258 -37.92137,45.191998 l 43.19615,77.69604 h -22.80985 l -42.34077,-75.41505 h -42.76846 v 75.41505 H 168.45872 V 30.694588 h 61.30146 q 28.79743,0 44.76432,12.973099 15.96689,12.830537 15.96689,36.068065 z m -20.10118,0 q 0,-32.361465 -40.63003,-32.361465 h -41.91309 v 62.869633 h 41.91309 q 21.52679,0 31.07841,-7.4132 9.55162,-7.555758 9.55162,-23.094968 z"
                                style="font-family:Meera;-inkscape-font-specification:'Meera, Normal'"
                                id="path5804"/>
                        <path
                                d="m 307.50972,176.96271 q 0,8.55369 7.12807,8.55369 h 14.1136 v 17.10739 h -18.10532 q -21.38423,0 -21.38423,-27.08669 V 30.409465 h 18.24788 z"
                                style="font-family:Meera;-inkscape-font-specification:'Meera, Normal'"
                                id="path5808"/>
                        <path
                                d="m 308.28193,254.0885 q 6.2727,5.27478 12.11772,5.27478 5.98759,0 10.12187,-3.27892 4.13429,-3.13635 7.55576,-8.26857 3.56404,-5.13221 6.55783,-11.54748 2.9938,-6.27271 5.27478,-12.68798 2.42355,-6.2727 4.13428,-11.8326 1.8533,-5.5599 3.13636,-9.12394 L 305.57326,91.996042 h 20.10117 l 40.05979,87.960468 31.22097,-87.960468 h 20.10118 L 369.01313,223.29521 q -8.98137,24.80571 -15.25408,33.92964 -6.27271,9.2665 -13.82847,14.54128 -7.55576,5.41734 -15.82433,5.41734 -15.82432,0 -25.66107,-8.5537 z"
                                style="font-family:Meera;-inkscape-font-specification:'Meera, Normal'"
                                id="path5810"/>
                    </g>
                </g>
            </g>
        </g>
    </g>
</svg>
